<svg xmlns="http://www.w3.org/2000/svg" viewBox="0 0 600 215" width="600" height="215">
  <defs>
    <linearGradient id="gGreen" x1="0" y1="0" x2="0" y2="1">
      <stop offset="0" stop-color="#8cc63f"/>
      <stop offset="1" stop-color="#5a9a32"/>
    </linearGradient>
    <linearGradient id="gBlue" x1="0" y1="0" x2="0" y2="1">
      <stop offset="0" stop-color="#3f7fa0"/>
      <stop offset="1" stop-color="#2a5f7d"/>
    </linearGradient>
    <linearGradient id="gLeaf" x1="0.1" y1="0" x2="0.9" y2="1">
      <stop offset="0" stop-color="#a4d65e"/>
      <stop offset="1" stop-color="#5a9a32"/>
    </linearGradient>
  </defs>

  <!-- Left figure -->
  <g fill="url(#gGreen)">
    <circle cx="66" cy="78" r="19"/>
    <path d="M66 99c-19 0-32 13-28 38 1 8 6 9 9 5l8-15c2 13 1 24 0 32 6 4 16 4 22 0-1-8-2-19 0-32l8 15c3 4 8 3 9-5 4-25-9-38-28-38z"/>
  </g>
  <!-- Right figure -->
  <g fill="url(#gGreen)">
    <circle cx="174" cy="78" r="19"/>
    <path d="M174 99c-19 0-32 13-28 38 1 8 6 9 9 5l8-15c2 13 1 24 0 32 6 4 16 4 22 0-1-8-2-19 0-32l8 15c3 4 8 3 9-5 4-25-9-38-28-38z"/>
  </g>
  <!-- Center figure (taller, blue) -->
  <g fill="url(#gBlue)">
    <circle cx="120" cy="52" r="24"/>
    <path d="M120 78c-25 0-41 17-35 48 2 10 8 12 12 6l11-21c2 17 1 33 0 45 8 5 22 5 30 0-1-12-2-28 0-45l11 21c4 6 10 4 12-6 6-31-10-48-35-48z"/>
  </g>
  <!-- Cradling leaf / hand -->
  <path d="M34 158c34 36 142 36 184-5 0 0-22 56-92 56-48 0-84-34-92-51z" fill="url(#gLeaf)"/>

  <!-- Wordmark -->
  <text x="240" y="105" font-family="DM Sans, Arial, sans-serif" font-size="64" font-weight="800" fill="#10222f" letter-spacing="2">PROUD PHYSIO</text>
  <text x="240" y="170" font-family="DM Sans, Arial, sans-serif" font-size="56" font-weight="800" fill="#10222f" letter-spacing="2">&amp; WELLNESS</text>
</svg>
