<svg xmlns="http://www.w3.org/2000/svg" viewBox="0 0 560 200" width="560" height="200">
  <defs>
    <linearGradient id="gGreen" x1="0" y1="0" x2="0" y2="1">
      <stop offset="0" stop-color="#8cc63f"/>
      <stop offset="1" stop-color="#5a9a32"/>
    </linearGradient>
    <linearGradient id="gGreenDark" x1="0" y1="0" x2="0" y2="1">
      <stop offset="0" stop-color="#7cb73a"/>
      <stop offset="1" stop-color="#4e8a2c"/>
    </linearGradient>
    <linearGradient id="gLeaf" x1="0" y1="0" x2="1" y2="1">
      <stop offset="0" stop-color="#a4d65e"/>
      <stop offset="1" stop-color="#5a9a32"/>
    </linearGradient>
  </defs>

  <!-- Left figure -->
  <g fill="url(#gGreen)">
    <circle cx="68" cy="70" r="20"/>
    <path d="M68 92c-20 0-34 14-30 40 1 8 6 10 10 6l8-16c2 14 1 26 0 34 6 4 18 4 24 0-1-8-2-20 0-34l8 16c4 4 9 2 10-6 4-26-10-40-30-40z"/>
  </g>
  <!-- Right figure -->
  <g fill="url(#gGreen)">
    <circle cx="172" cy="70" r="20"/>
    <path d="M172 92c-20 0-34 14-30 40 1 8 6 10 10 6l8-16c2 14 1 26 0 34 6 4 18 4 24 0-1-8-2-20 0-34l8 16c4 4 9 2 10-6 4-26-10-40-30-40z"/>
  </g>
  <!-- Center figure (taller, navy) -->
  <g fill="#2f6e8f">
    <circle cx="120" cy="50" r="24"/>
    <path d="M120 76c-24 0-40 18-34 50 2 10 8 12 13 7l10-20c2 18 1 34 0 46 8 5 22 5 30 0-1-12-2-28 0-46l10 20c5 5 11 3 13-7 6-32-10-50-34-50z"/>
  </g>
  <!-- Leaf / cradling hand -->
  <path d="M40 150c30 34 130 34 168-4 0 0-28 50-92 50-44 0-72-30-76-46z" fill="url(#gLeaf)"/>

  <!-- Wordmark -->
  <text x="232" y="98" font-family="DM Sans, Arial, sans-serif" font-size="62" font-weight="800" fill="#11283a" letter-spacing="1">PROUD PHYSIO</text>
  <text x="232" y="160" font-family="DM Sans, Arial, sans-serif" font-size="56" font-weight="800" fill="#11283a" letter-spacing="1">&amp; WELLNESS</text>
</svg>
